<?xml version="1.0" standalone="no"?>
<!DOCTYPE svg PUBLIC "-//W3C//DTD SVG 20010904//EN"
  "http://www.w3.org/TR/2001/REC-SVG-20010904/DTD/svg10.dtd">
<svg version="1.0" xmlns="http://www.w3.org/2000/svg"
     width="130.000000pt" height="130.000000pt" viewBox="0 0 278.000000 278.000000"
     preserveAspectRatio="xMidYMid meet">

  <g transform="translate(0.000000,278.000000) scale(0.100000,-0.100000)"
     fill="#444b5d" stroke="none">
    <path d="M160 2456 l0 -196 475 0 c521 0 518 0 568 -59 50 -60 31 -185 -35
-223 -16 -9 -89 -14 -253 -18 l-230 -5 -3 -192 -2 -193 172 0 173 -1 496 -712
495 -712 307 -3 c169 -1 307 0 307 4 0 3 -240 350 -533 771 l-534 764 64 62
c82 79 129 169 145 285 41 284 -118 512 -417 599 -53 15 -125 18 -627 21
l-568 3 0 -195z"/>
    <path d="M2130 2220 l0 -240 255 0 255 0 0 240 0 240 -255 0 -255 0 0 -240z"/>
    <path d="M160 1765 l0 -195 210 0 210 0 0 195 0 195 -210 0 -210 0 0 -195z"/>
    <path d="M2130 1560 l0 -240 255 0 255 0 0 240 0 240 -255 0 -255 0 0 -240z"/>
    <path d="M583 1420 c-211 -22 -340 -92 -394 -213 -21 -46 -24 -67 -24 -187 0
-120 3 -141 24 -187 13 -29 43 -71 68 -94 93 -85 191 -108 463 -109 213 -1
266 -8 293 -41 20 -25 23 -88 4 -113 -22 -30 -88 -35 -464 -36 l-363 0 0 -151
0 -151 423 5 c376 4 432 7 513 25 161 35 239 82 290 174 29 52 29 55 29 208 0
150 -1 157 -28 212 -73 148 -193 188 -563 188 -224 0 -257 7 -267 59 -9 45 2
90 27 104 14 8 105 14 288 17 l267 5 -100 148 -100 147 -157 -1 c-86 -1 -190
-5 -229 -9z"/>
  </g>
</svg>
