<svg viewBox="0 0 276 114" width="276" height="114" xmlns="http://www.w3.org/2000/svg"
     xmlns:xlink="http://www.w3.org/1999/xlink">
  <symbol id="logo-symbol-wordmark">
  <g transform="matrix(0.03937, 0, 0, -0.03937, 0, 113.031273)" fill="currentColor" stroke="none">
    <path d="M0 2676 l0 -196 448 0 c417 0 450 -2 489 -19 52 -24 73 -63 73 -133 0 -62 -14 -93 -53 -122 -26 -19 -45 -21 -245 -26 l-217 -5 -3 -193 -2 -194 300 3 301 3 534 -894 533 -895 210 -3 211 -2 -90 151 c-49 83 -89 153 -87 154 2 1 32 -1 67 -5 167 -21 318 40 413 165 94 123 121 318 68 487 -25 79 -60 136 -119 192 -176 164 -476 149 -641 -31 l-50 -55 0 101 0 100 -157 3 -158 3 -211 354 -211 354 39 56 c74 105 105 277 75 418 -41 190 -165 324 -361 390 l-81 28 -537 3 -538 3 0 -195z m2501 -1678 c159 -55 201 -280 75 -396 -76 -70 -177 -78 -285 -22 -47 23 -115 97 -142 153 l-21 43 26 50 c74 142 222 215 347 172z"/>
    <path d="M1800 2730 l0 -140 175 0 175 0 0 140 0 140 -175 0 -175 0 0 -140z"/>
    <path d="M5350 2165 l0 -615 160 0 160 0 0 615 0 615 -160 0 -160 0 0 -615z"/>
    <path d="M4165 2476 c-160 -39 -281 -163 -320 -327 -30 -131 -15 -284 42 -396 131 -261 520 -306 726 -84 l55 60 6 -47 c4 -26 9 -66 13 -89 l5 -43 170 0 169 0 -6 33 c-3 17 -16 120 -29 227 l-25 195 24 190 c13 105 27 207 30 228 l5 37 -169 0 -169 0 -6 -47 c-4 -27 -9 -65 -12 -86 l-6 -38 -58 58 c-31 32 -79 70 -107 85 -99 54 -227 71 -338 44z m338 -266 c77 -39 167 -149 167 -205 0 -11 -13 -43 -29 -71 -111 -193 -366 -218 -453 -45 -63 124 -18 279 96 333 55 25 155 20 219 -12z"/>
    <path d="M1810 2015 l0 -465 160 0 160 0 0 465 0 465 -160 0 -160 0 0 -465z"/>
    <path d="M2477 2393 c21 -38 135 -241 254 -453 l217 -385 195 -3 c178 -2 195 -1 202 15 3 10 74 209 157 443 83 234 153 431 155 438 4 9 -34 12 -169 12 l-174 0 -101 -242 -101 -242 -98 152 c-55 83 -125 192 -157 242 l-58 90 -180 0 -180 0 38 -67z"/>
    <path d="M6270 2449 c-138 -20 -245 -90 -269 -174 -6 -22 -11 -78 -11 -126 0 -104 28 -171 89 -214 68 -47 121 -57 320 -62 162 -5 186 -8 202 -24 24 -24 24 -71 1 -92 -16 -15 -53 -17 -305 -17 l-287 0 0 -88 0 -89 53 -11 c135 -30 458 -42 582 -22 210 34 274 100 275 280 0 123 -12 165 -64 216 -62 62 -114 75 -336 81 -102 3 -193 10 -202 15 -26 13 -25 94 1 108 12 6 121 10 286 10 l266 0 -3 87 -3 87 -30 8 c-118 32 -431 47 -565 27z"/>
    <path d="M0 1985 l0 -195 185 0 185 0 0 195 0 195 -185 0 -185 0 0 -195z"/>
    <path d="M920 1250 c-168 -9 -268 -28 -354 -68 -83 -39 -120 -73 -153 -140 -26 -53 -28 -65 -28 -187 0 -115 3 -136 24 -182 26 -58 78 -111 140 -143 81 -41 155 -51 414 -58 246 -7 249 -7 268 -31 22 -27 25 -89 6 -115 -22 -30 -88 -35 -464 -36 l-363 0 0 -145 0 -145 354 0 c195 0 400 5 457 10 254 26 395 101 433 231 19 61 21 223 5 298 -14 69 -60 136 -116 171 -88 56 -124 62 -413 69 -184 5 -272 11 -288 20 -47 26 -53 118 -9 143 16 9 100 14 288 18 l267 5 -102 147 -101 147 -60 -1 c-33 -1 -125 -4 -205 -8z"/>
    <path d="M3560 1249 c-245 -48 -394 -313 -335 -594 31 -146 108 -251 228 -310 198 -96 436 -47 566 118 34 44 36 41 47 -70 l7 -73 168 0 c93 0 169 3 169 8 0 4 -12 106 -27 226 l-27 219 23 186 c12 102 25 205 28 229 l6 42 -170 0 -171 0 -7 -77 c-4 -43 -9 -81 -11 -85 -2 -3 -30 20 -62 52 -116 115 -268 161 -432 129z m334 -273 c61 -35 112 -90 143 -150 l25 -50 -21 -43 c-64 -133 -205 -211 -328 -183 -101 22 -173 116 -173 225 0 95 65 197 142 223 57 19 160 9 212 -22z"/>
    <path d="M5012 1246 c-110 -21 -212 -74 -286 -148 -74 -75 -112 -148 -128 -252 -39 -249 121 -469 388 -532 89 -21 258 -21 346 0 194 46 354 191 383 349 l7 37 -161 0 -161 0 -13 -32 c-34 -80 -123 -131 -227 -131 -151 1 -240 92 -240 246 0 158 130 259 295 228 78 -14 133 -53 164 -114 l23 -47 160 0 160 0 -6 38 c-27 151 -179 296 -366 348 -80 21 -250 26 -338 10z"/>
    <path d="M6325 1245 c-134 -30 -210 -72 -294 -160 -168 -178 -158 -464 22 -631 121 -113 242 -156 442 -156 147 0 263 25 383 83 l82 40 0 104 0 105 -39 -20 c-62 -31 -200 -68 -287 -75 -87 -8 -184 6 -250 34 -39 17 -114 85 -114 102 0 5 161 10 358 11 l357 3 -3 60 c-11 203 -109 373 -262 454 -107 57 -264 75 -395 46z m253 -241 c37 -19 59 -38 77 -68 14 -24 25 -46 25 -49 0 -4 -97 -7 -215 -7 -239 0 -230 -3 -177 69 58 78 192 104 290 55z"/>
  </g>
  </symbol>
  <use xlink:href="#logo-symbol-wordmark" style="color:#fff"/>
</svg>
